<mxfile host="app.diagrams.net" modified="2023-07-17T21:58:07.945Z" agent="Mozilla/5.0 (Windows NT 10.0; Win64; x64) AppleWebKit/537.36 (KHTML, like Gecko) Chrome/114.0.0.0 Safari/537.36" etag="WTJ4KM4I9qKt_BVCYvha" version="21.6.2" type="device">
  <diagram name="Page-1" id="s9URJ02kZdWTtRt5Mpn2">
    <mxGraphModel dx="581" dy="307" grid="1" gridSize="10" guides="1" tooltips="1" connect="1" arrows="1" fold="1" page="1" pageScale="1" pageWidth="850" pageHeight="1100" math="0" shadow="0">
      <root>
        <mxCell id="0" />
        <mxCell id="1" parent="0" />
        <mxCell id="jcGAcOVpqSq9n824rz7Z-1" value="" style="shape=cube;whiteSpace=wrap;html=1;boundedLbl=1;backgroundOutline=1;darkOpacity=0.05;darkOpacity2=0.1;" vertex="1" parent="1">
          <mxGeometry x="370" y="300" width="110" height="30" as="geometry" />
        </mxCell>
        <mxCell id="jcGAcOVpqSq9n824rz7Z-2" value="" style="endArrow=classic;html=1;rounded=0;" edge="1" parent="1">
          <mxGeometry width="50" height="50" relative="1" as="geometry">
            <mxPoint x="425" y="309.5" as="sourcePoint" />
            <mxPoint x="545" y="309.5" as="targetPoint" />
          </mxGeometry>
        </mxCell>
        <mxCell id="jcGAcOVpqSq9n824rz7Z-3" value="L" style="text;html=1;align=center;verticalAlign=middle;resizable=0;points=[];autosize=1;strokeColor=none;fillColor=none;" vertex="1" parent="1">
          <mxGeometry x="354" y="310" width="30" height="30" as="geometry" />
        </mxCell>
        <mxCell id="jcGAcOVpqSq9n824rz7Z-4" value="W" style="text;html=1;align=center;verticalAlign=middle;resizable=0;points=[];autosize=1;strokeColor=none;fillColor=none;" vertex="1" parent="1">
          <mxGeometry x="420" y="327" width="30" height="30" as="geometry" />
        </mxCell>
        <mxCell id="jcGAcOVpqSq9n824rz7Z-5" value="Primary Axis of Rotation" style="text;html=1;align=center;verticalAlign=middle;resizable=0;points=[];autosize=1;strokeColor=none;fillColor=none;" vertex="1" parent="1">
          <mxGeometry x="478" y="308" width="150" height="30" as="geometry" />
        </mxCell>
        <mxCell id="jcGAcOVpqSq9n824rz7Z-6" value="" style="endArrow=none;dashed=1;html=1;rounded=0;" edge="1" parent="1">
          <mxGeometry width="50" height="50" relative="1" as="geometry">
            <mxPoint x="425" y="310" as="sourcePoint" />
            <mxPoint x="386" y="270" as="targetPoint" />
          </mxGeometry>
        </mxCell>
        <mxCell id="jcGAcOVpqSq9n824rz7Z-7" value="Girder CL" style="text;html=1;align=center;verticalAlign=middle;resizable=0;points=[];autosize=1;strokeColor=none;fillColor=none;" vertex="1" parent="1">
          <mxGeometry x="324" y="265" width="80" height="30" as="geometry" />
        </mxCell>
        <mxCell id="jcGAcOVpqSq9n824rz7Z-11" value="&lt;b&gt;&lt;u&gt;Bearing Orientation&lt;/u&gt;&lt;/b&gt;" style="text;html=1;align=center;verticalAlign=middle;resizable=0;points=[];autosize=1;strokeColor=none;fillColor=none;" vertex="1" parent="1">
          <mxGeometry x="352" y="230" width="140" height="30" as="geometry" />
        </mxCell>
      </root>
    </mxGraphModel>
  </diagram>
</mxfile>
